<svg xmlns="http://www.w3.org/2000/svg" viewBox="0 0 189.26 24.63"><defs><style>.cls-1{fill:#fff;}</style></defs><g id="Layer_2" data-name="Layer 2"><g id="Layer_1-2" data-name="Layer 1"><path class="cls-1" d="M7.49,8.83,6,2.87l-1.51,6h-2L0,.14H2.07L3.6,6.42,5.25.14H6.7L8.34,6.42,9.86.14h2.08L9.46,8.83Z"/><path class="cls-1" d="M17,8.83V5c0-.87-.46-1.14-1.16-1.14a1.82,1.82,0,0,0-1.44.73V8.83H12.77V.14h1.67V3.35a2.92,2.92,0,0,1,2.2-1,1.82,1.82,0,0,1,2.05,2V8.83Z"/><path class="cls-1" d="M24.11,8.83V8.17a2.56,2.56,0,0,1-2,.82,2.09,2.09,0,0,1-2.18-2.08,2,2,0,0,1,2.18-2,2.57,2.57,0,0,1,2,.77V4.85c0-.64-.54-1.06-1.38-1.06a2.66,2.66,0,0,0-1.81.74l-.65-1.15a4,4,0,0,1,2.75-1c1.44,0,2.76.58,2.76,2.39V8.83Zm0-1.51V6.54A1.67,1.67,0,0,0,22.78,6c-.65,0-1.18.35-1.18.95s.53.94,1.18.94A1.63,1.63,0,0,0,24.11,7.32Z"/><path class="cls-1" d="M27.75,7.26V4h-1V2.54h1V.82h1.66V2.54h1.27V4H29.41V6.81c0,.41.2.71.57.71a.79.79,0,0,0,.57-.2l.35,1.27a2,2,0,0,1-1.38.4A1.56,1.56,0,0,1,27.75,7.26Z"/><path class="cls-1" d="M41.21,8.83l-.54-1.47H36.94l-.55,1.47h-2.1L37.64.14H40l3.35,8.69ZM38.8,2,37.45,5.73h2.71Z"/><path class="cls-1" d="M43.26,4.5A4.41,4.41,0,0,1,47.9,0a4,4,0,0,1,3.62,2.12l-1.59.79a2.33,2.33,0,0,0-2-1.27A2.7,2.7,0,0,0,45.17,4.5,2.7,2.7,0,0,0,47.9,7.35a2.34,2.34,0,0,0,2-1.26l1.59.76A4,4,0,0,1,47.9,9,4.42,4.42,0,0,1,43.26,4.5Z"/><path class="cls-1" d="M54.64,8.83V1.77H52.1V.14H59V1.77H56.5V8.83Z"/><path class="cls-1" d="M60.22,5.36V.14H62.1V5.3a2,2,0,1,0,4.08,0V.14h1.89V5.36C68.07,7.51,66.79,9,64.14,9S60.22,7.51,60.22,5.36Z"/><path class="cls-1" d="M75.37,8.83l-.55-1.47H71.09l-.55,1.47H68.45L71.79.14h2.32l3.35,8.69ZM73,2,71.6,5.73h2.71Z"/><path class="cls-1" d="M78.2,8.83V.14h1.86V7.21h3.67V8.83Z"/><path class="cls-1" d="M84.91,8.83V.14h1.86V7.21h3.68V8.83Z"/><path class="cls-1" d="M92.47,8.83V5.28L89.13.14h2.11l2.15,3.48L95.54.14h2.1L94.32,5.28V8.83Z"/><path class="cls-1" d="M107.76,8.83V5.17h-4.11V8.83H101.8V.14h1.85V3.56h4.11V.14h1.86V8.83Z"/><path class="cls-1" d="M115.07,8.83V8.17a2.56,2.56,0,0,1-2,.82,2.09,2.09,0,0,1-2.18-2.08,2,2,0,0,1,2.18-2,2.6,2.6,0,0,1,2,.77V4.85c0-.64-.55-1.06-1.38-1.06a2.64,2.64,0,0,0-1.81.74l-.65-1.15a4,4,0,0,1,2.75-1c1.44,0,2.76.58,2.76,2.39V8.83Zm0-1.51V6.54A1.67,1.67,0,0,0,113.74,6c-.65,0-1.18.35-1.18.95s.53.94,1.18.94A1.63,1.63,0,0,0,115.07,7.32Z"/><path class="cls-1" d="M120,8v3.2h-1.65V2.54H120v.8a2.44,2.44,0,0,1,2-1c1.61,0,2.78,1.2,2.78,3.3S123.58,9,122,9A2.44,2.44,0,0,1,120,8Zm3-2.35a1.64,1.64,0,0,0-1.61-1.82,1.86,1.86,0,0,0-1.42.71V6.79a1.9,1.9,0,0,0,1.42.73A1.65,1.65,0,0,0,123.05,5.68Z"/><path class="cls-1" d="M127.62,8v3.2H126V2.54h1.65v.8a2.44,2.44,0,0,1,1.95-1c1.61,0,2.78,1.2,2.78,3.3S131.18,9,129.57,9A2.44,2.44,0,0,1,127.62,8Zm3-2.35A1.64,1.64,0,0,0,129,3.86a1.86,1.86,0,0,0-1.42.71V6.79a1.9,1.9,0,0,0,1.42.73A1.65,1.65,0,0,0,130.65,5.68Z"/><path class="cls-1" d="M133.16,5.68a3.22,3.22,0,0,1,3.26-3.3,3.15,3.15,0,0,1,3.16,3.46v.39H134.9a1.68,1.68,0,0,0,1.81,1.41A2.67,2.67,0,0,0,138.38,7l.74,1.1a4,4,0,0,1-2.59.87A3.19,3.19,0,0,1,133.16,5.68Zm3.26-1.94a1.46,1.46,0,0,0-1.54,1.34H138A1.45,1.45,0,0,0,136.42,3.74Z"/><path class="cls-1" d="M145,8.83V5a1,1,0,0,0-1.16-1.17,1.83,1.83,0,0,0-1.43.73V8.83h-1.65V2.54h1.65v.81a3,3,0,0,1,2.2-1,1.84,1.84,0,0,1,2.06,2V8.83Z"/><path class="cls-1" d="M147.78,8l.71-1.2a3.55,3.55,0,0,0,2.18.88c.72,0,1.06-.28,1.06-.67,0-1-3.73-.18-3.73-2.65,0-1.06.91-2,2.58-2a4.07,4.07,0,0,1,2.53.86l-.67,1.18a2.71,2.71,0,0,0-1.86-.73c-.6,0-1,.26-1,.61,0,.93,3.74.14,3.74,2.68,0,1.16-1,2-2.74,2A4.19,4.19,0,0,1,147.78,8Z"/><path class="cls-1" d="M157.93,8.83V.14h1.85V8.83Z"/><path class="cls-1" d="M161.84,8.83V4h-1V2.54h1V2.28A2,2,0,0,1,164,0a2.18,2.18,0,0,1,1.64.6l-.62,1a1,1,0,0,0-.69-.25c-.47,0-.78.3-.78.91v.26h1.27V4H163.5V8.83Z"/><path class="cls-1" d="M171.54,8.83V5.28L168.2.14h2.11l2.15,3.48L174.61.14h2.1l-3.32,5.14V8.83Z"/><path class="cls-1" d="M175.46,5.68a3.33,3.33,0,0,1,6.66,0,3.33,3.33,0,0,1-6.66,0Zm4.94,0a1.62,1.62,0,1,0-3.22,0,1.62,1.62,0,1,0,3.22,0Z"/><path class="cls-1" d="M187.61,8.83V8a3,3,0,0,1-2.22,1,1.8,1.8,0,0,1-2-2V2.54H185V6.36a1,1,0,0,0,1.16,1.16,1.85,1.85,0,0,0,1.43-.72V2.54h1.65V8.83Z"/><path class="cls-1" d="M.43,20.14a4.41,4.41,0,0,1,4.64-4.5,4,4,0,0,1,3.58,1.94l-1.52.84a2.52,2.52,0,0,0-2.06-1.14,2.72,2.72,0,0,0-2.74,2.86A2.71,2.71,0,0,0,5.07,23a3,3,0,0,0,1.84-.66v-1H4.61V19.67H8.76V23a4.79,4.79,0,0,1-3.69,1.63A4.42,4.42,0,0,1,.43,20.14Z"/><path class="cls-1" d="M9.79,21.32A3.21,3.21,0,0,1,13.05,18a3.14,3.14,0,0,1,3.15,3.45v.39H11.52a1.69,1.69,0,0,0,1.81,1.41A2.62,2.62,0,0,0,15,22.67l.74,1.09a3.92,3.92,0,0,1-2.59.87A3.19,3.19,0,0,1,9.79,21.32Zm3.26-1.94a1.45,1.45,0,0,0-1.54,1.34h3.1A1.44,1.44,0,0,0,13.05,19.38Z"/><path class="cls-1" d="M17.74,22.9V19.63h-1V18.18h1V16.46h1.65v1.72h1.28v1.45H19.39v2.83c0,.4.21.7.58.7a.84.84,0,0,0,.57-.19l.35,1.26a2,2,0,0,1-1.38.4A1.56,1.56,0,0,1,17.74,22.9Z"/><path class="cls-1" d="M24.6,23.25l1-1.44A3.88,3.88,0,0,0,28.38,23c1,0,1.51-.45,1.51-1,0-1.51-5-.46-5-3.73,0-1.45,1.25-2.64,3.3-2.64a4.82,4.82,0,0,1,3.39,1.21l-1,1.38A3.75,3.75,0,0,0,28,17.3c-.78,0-1.22.34-1.22.86,0,1.37,5,.44,5,3.68,0,1.59-1.15,2.79-3.48,2.79A5,5,0,0,1,24.6,23.25Z"/><path class="cls-1" d="M32.82,16.52a1,1,0,0,1,2,0,1,1,0,1,1-2,0Zm.16,8v-6.3h1.65v6.3Z"/><path class="cls-1" d="M35.87,21.32A3.2,3.2,0,0,1,39.21,18a2.94,2.94,0,0,1,2.49,1.13l-1.09,1a1.5,1.5,0,0,0-1.32-.68,1.68,1.68,0,0,0-1.71,1.82,1.69,1.69,0,0,0,1.71,1.84,1.56,1.56,0,0,0,1.32-.69l1.09,1a3,3,0,0,1-2.49,1.14A3.2,3.2,0,0,1,35.87,21.32Z"/><path class="cls-1" d="M46.86,24.48l-1.67-2.43-.75.81v1.62H42.78V15.79h1.66V21l2.38-2.8h2L46.36,21l2.57,3.44Z"/><path class="cls-1" d="M52.71,21.32a3.33,3.33,0,0,1,6.66,0,3.33,3.33,0,0,1-6.66,0Zm4.94,0a1.62,1.62,0,1,0-3.22,0,1.62,1.62,0,1,0,3.22,0Z"/><path class="cls-1" d="M60.61,24.48v-6.3h1.66V19a2.73,2.73,0,0,1,2-1v1.61a2.48,2.48,0,0,0-.45,0,2.11,2.11,0,0,0-1.55.72v4.16Z"/><path class="cls-1" d="M74.65,24.48V20.82H70.54v3.66H68.69V15.79h1.85V19.2h4.11V15.79h1.86v8.69Z"/><path class="cls-1" d="M82.43,24.48v-.8a3,3,0,0,1-2.21.95,1.8,1.8,0,0,1-2-2V18.18h1.66V22A1,1,0,0,0,81,23.16a1.84,1.84,0,0,0,1.43-.72V18.18h1.66v6.3Z"/><path class="cls-1" d="M85.73,24.48v-6.3h1.65V19a2.76,2.76,0,0,1,2-1v1.61a2.61,2.61,0,0,0-.46,0,2.15,2.15,0,0,0-1.55.72v4.16Z"/><path class="cls-1" d="M90.76,22.9V19.63h-1V18.18h1V16.46h1.66v1.72h1.27v1.45H92.42v2.83c0,.4.2.7.57.7a.84.84,0,0,0,.57-.19l.35,1.26a2,2,0,0,1-1.38.4A1.56,1.56,0,0,1,90.76,22.9Z"/><path class="cls-1" d="M97.77,21.32a3.33,3.33,0,0,1,6.66,0,3.33,3.33,0,0,1-6.66,0Zm4.94,0a1.62,1.62,0,1,0-3.22,0,1.62,1.62,0,1,0,3.22,0Z"/><path class="cls-1" d="M109.92,24.48V20.67a1,1,0,0,0-1.16-1.17,1.81,1.81,0,0,0-1.43.73v4.25h-1.66v-6.3h1.66V19a2.92,2.92,0,0,1,2.2-1,1.83,1.83,0,0,1,2.06,2v4.45Z"/><path class="cls-1" d="M120.35,24.48v-.67a2.57,2.57,0,0,1-2,.82,2.08,2.08,0,0,1-2.17-2.08,2,2,0,0,1,2.17-2,2.6,2.6,0,0,1,2,.76v-.79c0-.64-.55-1.06-1.38-1.06a2.6,2.6,0,0,0-1.81.75L116.5,19a4.07,4.07,0,0,1,2.75-1c1.45,0,2.77.57,2.77,2.38v4.07Zm0-1.51v-.79a1.7,1.7,0,0,0-1.33-.56c-.65,0-1.19.36-1.19.95s.54.94,1.19.94A1.68,1.68,0,0,0,120.35,23Z"/><path class="cls-1" d="M126.62,20.14a4.41,4.41,0,0,1,4.64-4.5,3.94,3.94,0,0,1,3.62,2.13l-1.59.78a2.33,2.33,0,0,0-2-1.27,2.72,2.72,0,0,0-2.74,2.86A2.71,2.71,0,0,0,131.26,23a2.34,2.34,0,0,0,2-1.26l1.59.77a4,4,0,0,1-3.62,2.13A4.42,4.42,0,0,1,126.62,20.14Z"/><path class="cls-1" d="M136,24.48v-6.3h1.66V19a2.73,2.73,0,0,1,2-1v1.61a2.48,2.48,0,0,0-.45,0,2.11,2.11,0,0,0-1.55.72v4.16Z"/><path class="cls-1" d="M144.89,24.48v-.8a3,3,0,0,1-2.21.95,1.8,1.8,0,0,1-2-2V18.18h1.65V22a1,1,0,0,0,1.16,1.16,1.82,1.82,0,0,0,1.43-.72V18.18h1.66v6.3Z"/><path class="cls-1" d="M148,16.52a1,1,0,1,1,2,0,1,1,0,1,1-2,0Zm.15,8v-6.3h1.66v6.3Z"/><path class="cls-1" d="M150.94,23.66l.72-1.2a3.58,3.58,0,0,0,2.18.87c.71,0,1-.27,1-.66,0-1-3.73-.19-3.73-2.66,0-1.06.92-2,2.58-2a4,4,0,0,1,2.53.86l-.66,1.17a2.74,2.74,0,0,0-1.87-.73c-.59,0-1,.26-1,.61,0,.93,3.74.15,3.74,2.69,0,1.16-1,2-2.73,2A4.26,4.26,0,0,1,150.94,23.66Z"/><path class="cls-1" d="M157.3,21.32A3.21,3.21,0,0,1,160.56,18a3.14,3.14,0,0,1,3.15,3.45v.39H159a1.68,1.68,0,0,0,1.81,1.41,2.66,2.66,0,0,0,1.67-.61l.74,1.09a4,4,0,0,1-2.59.87A3.19,3.19,0,0,1,157.3,21.32Zm3.26-1.94A1.46,1.46,0,0,0,159,20.72h3.1A1.43,1.43,0,0,0,160.56,19.38Z"/><path class="cls-1" d="M165.42,20.66c0-1.54,1.92-1.72,1.92-2.62,0-.4-.31-.74-1-.74a2,2,0,0,0-1.6.8l-1.06-1.18a3.68,3.68,0,0,1,2.86-1.26c1.68,0,2.71.84,2.71,2.05,0,1.91-2.18,2.05-2.18,3.14a.73.73,0,0,0,.25.55l-1.44.42A1.71,1.71,0,0,1,165.42,20.66Zm0,2.9a1.06,1.06,0,1,1,1.06,1.06A1.07,1.07,0,0,1,165.42,23.56Z"/></g></g></svg>